<?xml version="1.0" standalone="no"?>
<!DOCTYPE svg PUBLIC "-//W3C//DTD SVG 20010904//EN"
 "http://www.w3.org/TR/2001/REC-SVG-20010904/DTD/svg10.dtd">
<svg version="1.0" xmlns="http://www.w3.org/2000/svg"
 width="340.000000pt" height="116.000000pt" viewBox="0 0 340.000000 116.000000"
 preserveAspectRatio="xMidYMid meet">

<g transform="translate(0.000000,116.000000) scale(0.100000,-0.100000)"
fill="#000000" stroke="none">
<path d="M2134 1009 c-47 -24 -57 -96 -19 -134 74 -75 194 33 128 114 -21 25
-78 35 -109 20z"/>
<path d="M1745 960 l-100 -26 3 -35 c1 -18 6 -37 10 -40 4 -4 50 4 104 18 l96
26 46 -33 c25 -19 46 -37 46 -41 0 -4 -34 -36 -75 -70 -113 -95 -114 -118 -20
-246 l46 -63 -150 0 -151 0 0 -45 0 -45 159 0 c88 0 171 4 186 10 15 6 32 24
41 45 14 34 13 39 -21 117 -20 44 -34 82 -33 83 2 2 32 26 68 55 l64 51 13
-37 c27 -79 74 -104 193 -104 l80 0 0 45 0 45 -84 0 c-90 0 -99 4 -110 55 -15
68 -30 86 -135 164 -137 102 -149 105 -276 71z"/>
<path d="M264 792 c-19 -13 -34 -50 -34 -86 0 -32 -3 -36 -25 -36 -20 0 -25
-5 -25 -25 0 -20 5 -25 25 -25 l25 0 0 -115 0 -115 -25 0 c-20 0 -25 -5 -25
-25 0 -25 0 -25 95 -25 95 0 95 0 95 25 0 23 -4 25 -40 25 l-40 0 0 114 0 115
53 3 c45 3 52 6 55 26 3 21 0 22 -52 22 l-56 0 0 40 0 40 55 0 c52 0 55 1 55
25 0 24 -2 25 -62 25 -35 0 -68 -4 -74 -8z"/>
<path d="M650 775 c0 -22 4 -25 35 -25 31 0 35 3 35 25 0 22 -4 25 -35 25 -31
0 -35 -3 -35 -25z"/>
<path d="M1470 780 c0 -19 7 -20 149 -20 133 0 151 2 172 20 l24 19 -172 1
c-166 0 -173 -1 -173 -20z"/>
<path d="M1040 710 c0 -38 -2 -40 -30 -40 -25 0 -30 -4 -30 -25 0 -21 5 -25
29 -25 l29 0 4 -119 c4 -149 12 -161 100 -161 56 0 59 1 56 23 -2 18 -11 23
-48 27 l-45 5 -3 112 -3 112 48 3 c41 3 48 6 51 26 3 20 0 22 -47 22 l-51 0 0
40 c0 38 -2 40 -30 40 -28 0 -30 -2 -30 -40z"/>
<path d="M2520 574 l0 -164 30 0 29 0 3 136 c3 115 6 139 20 147 12 8 21 7 32
-2 13 -11 16 -37 16 -147 l0 -134 25 0 25 0 0 128 c0 141 9 170 48 158 21 -7
22 -12 22 -147 l0 -139 30 0 30 0 0 108 c-1 128 -12 191 -36 209 -22 16 -76
17 -92 1 -10 -10 -17 -10 -31 -1 -10 6 -48 11 -85 11 l-66 0 0 -164z"/>
<path d="M2986 717 c-29 -29 -41 -103 -31 -190 10 -97 36 -117 151 -117 62 0
64 1 64 25 0 24 -2 25 -64 25 -74 0 -96 14 -96 61 l0 29 91 0 92 0 -5 72 c-5
62 -9 75 -32 95 -39 33 -137 33 -170 0z m142 -74 l3 -43 -60 0 -61 0 0 33 c0
45 17 58 70 55 l45 -3 3 -42z"/>
<path d="M1470 690 c0 -20 5 -20 122 -18 108 3 123 5 126 21 3 15 -8 17 -122
17 -120 0 -126 -1 -126 -20z"/>
<path d="M560 645 c0 -23 3 -25 50 -25 l50 0 0 -140 0 -140 75 0 c73 0 75 1
75 25 0 23 -3 25 -50 25 l-50 0 0 140 0 140 -75 0 c-73 0 -75 -1 -75 -25z"/>
<path d="M1470 600 c0 -19 7 -20 126 -20 111 0 125 2 120 16 -3 9 -6 18 -6 20
0 2 -54 4 -120 4 -113 0 -120 -1 -120 -20z"/>
<path d="M1715 249 c-58 -58 -59 -61 -40 -75 48 -37 48 -37 136 52 l84 84 -61
0 -60 0 -59 -61z"/>
</g>
</svg>
