<svg xmlns="http://www.w3.org/2000/svg" width="78.667" height="250.667" viewBox="0 0 59 188" stroke="rgb(0%,0%,0%)" stroke-width=".533" xmlns:v="https://vecta.io/nano"><path d="M29.066 20.023c1.23 2.453.53 4.56.223 7.012-3.19 2.98-10.848.887-12.48 3.55-3.395 5.13-16.43 21-16.53 25.648.125 4.082 8.547 18.852 13.418 23.863 1.156.254 2.645.438 3.383-.168 1-2.63.762-2.4 1.648-6.105-.617-1.055-1.012.88-2.602.7-2.477-3-7.207-14.8-7.672-17.62 2.25-4.055 7.262-8.816 11.07-14.79 3.06 4.918-3.422 6.937 2.1 10.344.523 4.816 1 12.633.5 14.977-13.012 17.02.375 57.027.8 62.34-3.637 12.355 3.438 38.066 3.605 40.434-.184 2.195-1.492 4.164-.66 5.52-1.11 4.703-2.273 6.578-1.352 9.336s7.594 3.45 8.875 1.75c.398-2.586-.262-9.11-1.184-10.336.492-1.05 1.086-4.734.086-7.89-1.18-4.04 2.488-26.87-.332-33.25.36-1.45.93-6.172.934-8.28-.344-1.266.207-14.953.855-25.645.652 10.703 1.2 24.47.855 25.738-1.23 1.227.043 7.008.934 8.28-.875 2.68 1.555 29.21 3.38 32.19-1 3.156.125 6.316.613 7.363-.922 1.227-1.934 8.453-1.535 11.04 1.28 1.703 8.305.31 9.227-2.45s-1.652-3.578-2.762-8.285c.828-1.355-.137-4.56-.32-6.746.168-2.37 4.074-26.32.438-38.676.43-5.313 12.402-45.848.8-62.34-.5-2.344.023-11.46.7-16.273 4.262-2-.87-5.86 2.063-9.05.453 3.738 1.684 19.88 3.688 25.137-1.352 6.492.926 24.844-.305 26.684s-1.664 6.516-1.535 8.6c1.54-.922 1.828-2.137 2.766-1.535 1.11 2.188-3.543 4.508-3.555 6.445 2.46 0 8.102-2.898 6.332-13.195-.008-4.125 5.43-26.664 2.148-32.19 1.133-3.6-1.832-25.625-3.996-30.05-1.63-2.66-10.344-1.625-13.535-4.605-.31-2.453-1.54-4.9-.31-7.363 2.766-3.988 2.867-17.1-4.836-17.16-9.938.004-8.695 13.082-5.93 17.066zm0 0" fill-rule="evenodd" fill="rgb(94.117647%,94.117647%,94.117647%)" stroke-linejoin="round"/><path d="M21.672 52.4c1.94.63 5.938.023 8.086-1.848m9.457-.638c1.793 2.637 5.328 1.746 7.027 1.3" fill="none"/><path d="M34.238.28C31.203.13 28.215 1.28 27 4.008c-3.035 6.86-2.63 16.148-1.414 18.773l4.004-.562a6.24 6.24 0 0 0-.613-2.063c-1.383-1.992-2.387-6.258-1.8-10.027s13.48-3.71 14.07.07-.12 8.06-1.508 10.05c-.258.512-.355 1.02-.426 1.53 1.516.172 2.707.535 3.273 1.2 1.414-3.434 1.62-13.72-.805-18.56C40.367 1.898 37.273.43 34.238.28zm0 0" fill-rule="evenodd" fill="rgb(50.196078%,50.196078%,50.196078%)"/></svg>