<svg xmlns="http://www.w3.org/2000/svg" width="65.333" height="252" viewBox="0 0 49 189" stroke="rgb(0%,0%,0%)" stroke-width=".562" xmlns:v="https://vecta.io/nano"><path d="M25.543 2.29c-.672-.027-5.5-.043-7.766 4.078-1.72 4.96-1.992 12.55 1.617 15.68.27 1.465.262 3.13-.324 4.227-3.926 3.684-11.305 2.332-14.31 5.035C-.38 37.273.605 67.512 1.43 69.54c-3.07 8.13 1.457 22.738 1.582 27.355 1.05 3.137-.406 8.543 3.98 12.75L6.12 97.1c-.324-4.828.434-12.254 1.492-17.7-.426-2.43.992-7.422.023-9.676 2-3.547 2.352-16.445.875-21.71 2.406 5.484 3.742 15.672 4.027 20.047-10.727 14.934-6.06 46.883.543 68.918-4.95 17.797.262 31.148.617 41.125 2.586 1.29-2.938 8.207-1.926 9.164 1.938 2.258 7.473 1.64 8.637-.098.605-1.184-.94-3.9-.523-5.844-.137-1.934.03-5.773.03-7.383s4.06-27.063 1.672-33.895c.758-2.2 1.75-6.262.79-9.715.63-3.078 1.97-34.71 1.645-37.606-.008-.066.06-.938.055-1.066 0 .082.05.738.043.785-.324 2.898 1.61 31.36.648 34.445-.965 3.445-.758 10.676 0 12.87-2.586 3.867-.324 30.906-.324 32.512s-.832 6.434-.97 8.367c.418 1.93-.93 5.258-.324 6.445 1.16 1.742 7.285 1.75 9.227-.504 1.012-.96-4.71-7.863-2.125-9.152.36-9.977 6.38-23.133 4.813-40.734 6.598-22.04 11.066-53.988 1.336-68.715.29-4.38 2.813-14.965 3.23-20.246-.88 5.066.254 18.94 2.25 22.488-.965 2.254-.527 6.266-.953 8.703 1.06 4.648 1.602 12.867 1.277 17.695s-.8 9.36-1.05 12.734c4.387-4.2 2.9-9.598 3.965-12.734.125-4.617 5.66-19.238 2.586-27.363.828-2.03 1.398-29.1-2.348-34.656-3.004-4.1-11.18-5.113-15.105-8.8-.586-1.094-.6-3.367-.324-4.832 3.61-3.133 3.336-9.516 1.62-14.477-1.977-3.6-3.97-4.102-6.008-4.195zm0 0" fill-rule="evenodd" fill="rgb(94.117647%,94.117647%,94.117647%)"/><path d="M14.98 91.926c6.367 2.375 9.55.594 9.55-2.973-.2 4.56 4.973 4.56 8.75 3.367" fill="none"/><path d="M15.926 24.188c-1.492-3.61-1.707-14.44.852-19.54 2.984-5.31 13.004-6.16 15.566-.426 3.195 7.223 2.766 16.992 1.488 19.754-2.773-.426-15.563-2.55-17.906.21zm0 0" fill-rule="evenodd" fill="rgb(50.196078%,50.196078%,50.196078%)"/></svg>